<svg xmlns="http://www.w3.org/2000/svg" xmlns:xlink="http://www.w3.org/1999/xlink" width="345" zoomAndPan="magnify" viewBox="0 0 258.75 69.749997" height="93" preserveAspectRatio="xMidYMid meet" version="1.0"><defs><g/><clipPath id="bd37f094f6"><path d="M 0.335938 0 L 258.164062 0 L 258.164062 69.5 L 0.335938 69.5 Z M 0.335938 0 " clip-rule="nonzero"/></clipPath><clipPath id="1146ddccef"><path d="M 0.335938 6.617188 L 62.363281 6.617188 L 62.363281 64.910156 L 0.335938 64.910156 Z M 0.335938 6.617188 " clip-rule="nonzero"/></clipPath><clipPath id="36d8fc98dc"><path d="M 0.335938 19 L 45 19 L 45 64.910156 L 0.335938 64.910156 Z M 0.335938 19 " clip-rule="nonzero"/></clipPath><clipPath id="0b590ab5df"><path d="M 0.335938 9 L 62.363281 9 L 62.363281 64.910156 L 0.335938 64.910156 Z M 0.335938 9 " clip-rule="nonzero"/></clipPath><clipPath id="467e6fbbb1"><path d="M 4 19 L 62.363281 19 L 62.363281 64.910156 L 4 64.910156 Z M 4 19 " clip-rule="nonzero"/></clipPath><clipPath id="ece7d1dfb1"><path d="M 0.335938 6.617188 L 62.363281 6.617188 L 62.363281 64.910156 L 0.335938 64.910156 Z M 0.335938 6.617188 " clip-rule="nonzero"/></clipPath></defs><g clip-path="url(#bd37f094f6)"><path fill="#ffffff" d="M 0.335938 0 L 258.164062 0 L 258.164062 69.5 L 0.335938 69.5 Z M 0.335938 0 " fill-opacity="1" fill-rule="nonzero"/></g><g clip-path="url(#1146ddccef)"><path stroke-linecap="round" transform="matrix(1.868303, 0, 0, 1.880357, 0.337506, 6.618235)" fill="none" stroke-linejoin="miter" d="M 8.124012 24.861744 C 8.297549 24.861744 8.471085 24.845124 8.642531 24.809809 C 8.816067 24.77657 8.98124 24.726713 9.144323 24.658159 C 9.305314 24.591682 9.460034 24.510663 9.604299 24.413026 C 9.750655 24.315388 9.886557 24.205286 10.009914 24.080642 C 10.133271 23.955998 10.244084 23.820967 10.342352 23.675549 C 10.438528 23.530131 10.52007 23.376404 10.586975 23.214367 C 10.655972 23.05233 10.706151 22.886138 10.739604 22.713714 C 10.773056 22.543367 10.791874 22.368866 10.791874 22.194364 C 10.791874 22.017786 10.773056 21.845362 10.739604 21.672938 C 10.706151 21.502591 10.655972 21.334322 10.586975 21.172285 C 10.52007 21.010248 10.438528 20.85652 10.342352 20.711102 C 10.244084 20.565684 10.133271 20.430653 10.009914 20.308087 C 9.886557 20.183443 9.750655 20.073341 9.604299 19.975703 C 9.460034 19.878066 9.305314 19.797047 9.144323 19.728493 C 8.98124 19.662016 8.816067 19.612159 8.642531 19.576843 C 8.471085 19.543604 8.297549 19.526985 8.124012 19.526985 C 7.948385 19.526985 7.774848 19.543604 7.603403 19.576843 C 7.429866 19.612159 7.264693 19.662016 7.101611 19.728493 C 6.940619 19.797047 6.7859 19.878066 6.641634 19.975703 C 6.495278 20.073341 6.359376 20.183443 6.236019 20.308087 C 6.112662 20.430653 6.001849 20.565684 5.905673 20.711102 C 5.807405 20.85652 5.725864 21.010248 5.658958 21.172285 C 5.592052 21.334322 5.539782 21.502591 5.50633 21.672938 C 5.472877 21.845362 5.45406 22.017786 5.45406 22.194364 C 5.45406 22.368866 5.472877 22.543367 5.50633 22.713714 C 5.539782 22.886138 5.592052 23.05233 5.658958 23.214367 C 5.725864 23.376404 5.807405 23.530131 5.905673 23.675549 C 6.001849 23.820967 6.112662 23.955998 6.236019 24.080642 C 6.359376 24.205286 6.495278 24.315388 6.641634 24.413026 C 6.7859 24.510663 6.940619 24.591682 7.101611 24.658159 C 7.264693 24.726713 7.429866 24.77657 7.603403 24.809809 C 7.774848 24.845124 7.948385 24.861744 8.124012 24.861744 Z M 6.976162 9.189852 L 23.115053 9.189852 M 8.389544 12.416052 L 22.408362 12.416052 M 7.661945 19.524908 L 18.113858 19.524908 C 18.394025 19.524908 18.665829 19.48336 18.931361 19.398187 C 19.198983 19.313013 19.445698 19.188369 19.671504 19.026332 C 19.899401 18.864295 20.095937 18.671097 20.263201 18.446738 C 20.430465 18.222379 20.560094 17.979324 20.649999 17.715494 L 24.959139 5.180474 C 25.049043 4.916644 25.178673 4.671511 25.345937 4.447152 C 25.513201 4.224871 25.709736 4.031673 25.937634 3.869636 C 26.165531 3.707599 26.410155 3.582955 26.677777 3.497781 C 26.943309 3.412608 27.215113 3.37106 27.49528 3.368983 L 30.62939 3.368983 " stroke="#0aad0a" stroke-width="1.283" stroke-opacity="1" stroke-miterlimit="10"/></g><g clip-path="url(#36d8fc98dc)"><path stroke-linecap="round" transform="matrix(1.868303, 0, 0, 1.880357, 0.337506, 6.618235)" fill="none" stroke-linejoin="miter" d="M 8.124012 22.580761 C 8.230643 22.580761 8.320547 22.543367 8.395816 22.466504 C 8.471085 22.391717 8.508719 22.300312 8.508719 22.194364 C 8.508719 22.088417 8.471085 21.997012 8.395816 21.922225 C 8.320547 21.847439 8.230643 21.807968 8.124012 21.807968 C 8.017381 21.807968 7.927477 21.847439 7.852208 21.922225 C 7.776939 21.997012 7.739305 22.088417 7.739305 22.194364 C 7.739305 22.300312 7.776939 22.391717 7.852208 22.466504 C 7.927477 22.54129 8.017381 22.578683 8.124012 22.578683 Z M 8.124012 22.580761 " stroke="#0aad0a" stroke-width="1.069" stroke-opacity="1" stroke-miterlimit="10"/></g><g clip-path="url(#0b590ab5df)"><path stroke-linecap="round" transform="matrix(1.868303, 0, 0, 1.880357, 0.337506, 6.618235)" fill="none" stroke-linejoin="miter" d="M 17.821145 24.861744 C 17.996773 24.861744 18.170309 24.845124 18.341755 24.809809 C 18.515291 24.77657 18.680465 24.726713 18.843547 24.658159 C 19.004539 24.591682 19.159258 24.510663 19.303523 24.413026 C 19.449879 24.315388 19.58369 24.205286 19.709138 24.080642 C 19.832496 23.955998 19.943308 23.820967 20.039485 23.675549 C 20.137753 23.530131 20.219294 23.376404 20.286199 23.214367 C 20.353105 23.05233 20.405375 22.886138 20.438828 22.713714 C 20.472281 22.543367 20.489007 22.368866 20.489007 22.194364 C 20.489007 22.017786 20.472281 21.845362 20.438828 21.672938 C 20.405375 21.502591 20.353105 21.334322 20.286199 21.172285 C 20.219294 21.010248 20.137753 20.85652 20.039485 20.711102 C 19.943308 20.565684 19.832496 20.430653 19.709138 20.308087 C 19.58369 20.183443 19.449879 20.073341 19.303523 19.975703 C 19.159258 19.878066 19.004539 19.797047 18.843547 19.728493 C 18.680465 19.662016 18.515291 19.612159 18.341755 19.576843 C 18.170309 19.543604 17.996773 19.526985 17.821145 19.526985 C 17.647609 19.526985 17.474073 19.543604 17.300536 19.576843 C 17.12909 19.612159 16.961826 19.662016 16.800835 19.728493 C 16.639843 19.797047 16.485124 19.878066 16.338768 19.975703 C 16.194503 20.073341 16.058601 20.183443 15.935243 20.308087 C 15.811886 20.430653 15.701074 20.565684 15.602806 20.711102 C 15.506629 20.85652 15.425088 21.010248 15.356092 21.172285 C 15.289186 21.334322 15.239007 21.502591 15.205554 21.672938 C 15.172101 21.845362 15.153284 22.017786 15.153284 22.194364 C 15.153284 22.368866 15.172101 22.543367 15.205554 22.713714 C 15.239007 22.886138 15.289186 23.05233 15.356092 23.214367 C 15.425088 23.376404 15.506629 23.530131 15.602806 23.675549 C 15.701074 23.820967 15.811886 23.955998 15.935243 24.080642 C 16.058601 24.205286 16.194503 24.315388 16.338768 24.413026 C 16.485124 24.510663 16.639843 24.591682 16.800835 24.658159 C 16.961826 24.726713 17.12909 24.77657 17.300536 24.809809 C 17.474073 24.845124 17.647609 24.861744 17.821145 24.861744 Z M 17.821145 24.861744 " stroke="#0aad0a" stroke-width="1.283" stroke-opacity="1" stroke-miterlimit="10"/></g><g clip-path="url(#467e6fbbb1)"><path stroke-linecap="round" transform="matrix(1.868303, 0, 0, 1.880357, 0.337506, 6.618235)" fill="none" stroke-linejoin="miter" d="M 17.821145 22.580761 C 17.927776 22.580761 18.019772 22.54129 18.09504 22.466504 C 18.170309 22.391717 18.207944 22.300312 18.207944 22.194364 C 18.207944 22.088417 18.170309 21.997012 18.09504 21.920148 C 18.019772 21.845362 17.927776 21.807968 17.821145 21.807968 C 17.714515 21.807968 17.62461 21.845362 17.549341 21.920148 C 17.474073 21.997012 17.436438 22.08634 17.436438 22.194364 C 17.436438 22.300312 17.474073 22.391717 17.549341 22.466504 C 17.62461 22.54129 17.714515 22.578683 17.821145 22.578683 Z M 17.821145 22.580761 " stroke="#0aad0a" stroke-width="1.069" stroke-opacity="1" stroke-miterlimit="10"/></g><g clip-path="url(#ece7d1dfb1)"><path stroke-linecap="round" transform="matrix(1.868303, 0, 0, 1.880357, 0.337506, 6.618235)" fill="none" stroke-linejoin="miter" d="M 21.187335 16.151213 L 7.147608 16.151213 C 6.907166 16.147059 6.693904 16.072272 6.505732 15.9227 C 6.319651 15.775204 6.196294 15.584084 6.137751 15.351415 L 3.754239 6.62842 C 3.632972 6.194244 3.946592 5.757991 4.377297 5.757991 L 22.377 5.757991 M 1.000654 26.527817 C 1.000654 26.527817 11.260213 23.054407 25.105495 26.527817 " stroke="#0aad0a" stroke-width="1.283" stroke-opacity="1" stroke-miterlimit="10"/></g><g fill="#000000" fill-opacity="1"><g transform="translate(65.748254, 32.962299)"><g><path d="M 8.5625 0.28125 C 7.21875 0.28125 6.023438 0.113281 4.984375 -0.21875 C 3.941406 -0.550781 3.070312 -0.984375 2.375 -1.515625 C 1.675781 -2.054688 1.144531 -2.648438 0.78125 -3.296875 L 2.875 -5.859375 L 3.21875 -5.859375 C 3.789062 -4.992188 4.523438 -4.304688 5.421875 -3.796875 C 6.316406 -3.285156 7.363281 -3.03125 8.5625 -3.03125 C 9.582031 -3.03125 10.351562 -3.242188 10.875 -3.671875 C 11.394531 -4.109375 11.65625 -4.703125 11.65625 -5.453125 C 11.65625 -5.910156 11.570312 -6.289062 11.40625 -6.59375 C 11.238281 -6.90625 10.957031 -7.171875 10.5625 -7.390625 C 10.175781 -7.617188 9.65625 -7.8125 9 -7.96875 L 6.515625 -8.53125 C 4.773438 -8.925781 3.476562 -9.582031 2.625 -10.5 C 1.78125 -11.425781 1.359375 -12.625 1.359375 -14.09375 C 1.359375 -15.1875 1.628906 -16.144531 2.171875 -16.96875 C 2.722656 -17.800781 3.519531 -18.445312 4.5625 -18.90625 C 5.601562 -19.363281 6.851562 -19.59375 8.3125 -19.59375 C 9.800781 -19.59375 11.078125 -19.394531 12.140625 -19 C 13.203125 -18.613281 14.097656 -18.015625 14.828125 -17.203125 L 12.9375 -14.609375 L 12.609375 -14.609375 C 12.054688 -15.179688 11.425781 -15.609375 10.71875 -15.890625 C 10.019531 -16.179688 9.21875 -16.328125 8.3125 -16.328125 C 7.257812 -16.328125 6.457031 -16.140625 5.90625 -15.765625 C 5.363281 -15.398438 5.09375 -14.894531 5.09375 -14.25 C 5.09375 -13.632812 5.285156 -13.144531 5.671875 -12.78125 C 6.054688 -12.425781 6.722656 -12.148438 7.671875 -11.953125 L 10.203125 -11.421875 C 12.078125 -11.023438 13.4375 -10.351562 14.28125 -9.40625 C 15.125 -8.457031 15.546875 -7.21875 15.546875 -5.6875 C 15.546875 -4.488281 15.285156 -3.441406 14.765625 -2.546875 C 14.253906 -1.648438 13.472656 -0.953125 12.421875 -0.453125 C 11.367188 0.0351562 10.082031 0.28125 8.5625 0.28125 Z M 8.5625 0.28125 "/></g></g></g><g fill="#000000" fill-opacity="1"><g transform="translate(82.340804, 32.962299)"><g><path d="M 6.671875 0.28125 C 5.035156 0.28125 3.828125 -0.164062 3.046875 -1.0625 C 2.265625 -1.957031 1.875 -3.242188 1.875 -4.921875 L 1.875 -14.578125 L 5.53125 -14.578125 L 5.53125 -5.375 C 5.53125 -4.488281 5.722656 -3.835938 6.109375 -3.421875 C 6.492188 -3.015625 7.085938 -2.8125 7.890625 -2.8125 C 8.898438 -2.8125 9.6875 -3.144531 10.25 -3.8125 C 10.8125 -4.476562 11.09375 -5.523438 11.09375 -6.953125 L 11.09375 -14.578125 L 14.765625 -14.578125 L 14.765625 0 L 11.25 0 L 11.25 -2.140625 L 10.96875 -2.203125 C 10.5 -1.367188 9.925781 -0.742188 9.25 -0.328125 C 8.582031 0.078125 7.722656 0.28125 6.671875 0.28125 Z M 6.671875 0.28125 "/></g></g></g><g fill="#000000" fill-opacity="1"><g transform="translate(99.197567, 32.962299)"><g><path d="M 2.09375 0 L 2.09375 -14.578125 L 5.65625 -14.578125 L 5.65625 -12.40625 L 5.9375 -12.359375 C 6.289062 -13.171875 6.75 -13.765625 7.3125 -14.140625 C 7.882812 -14.515625 8.582031 -14.703125 9.40625 -14.703125 C 10.238281 -14.703125 10.867188 -14.5625 11.296875 -14.28125 L 10.671875 -11.125 L 10.40625 -11.078125 C 10.164062 -11.171875 9.929688 -11.238281 9.703125 -11.28125 C 9.484375 -11.320312 9.21875 -11.34375 8.90625 -11.34375 C 7.882812 -11.34375 7.101562 -10.984375 6.5625 -10.265625 C 6.03125 -9.554688 5.765625 -8.40625 5.765625 -6.8125 L 5.765625 0 Z M 2.09375 0 "/></g></g></g><g fill="#000000" fill-opacity="1"><g transform="translate(110.624767, 32.962299)"><g><path d="M 14.40625 -6.46875 L 5.03125 -6.46875 C 5.132812 -5.195312 5.492188 -4.269531 6.109375 -3.6875 C 6.734375 -3.113281 7.578125 -2.828125 8.640625 -2.828125 C 9.472656 -2.828125 10.148438 -2.984375 10.671875 -3.296875 C 11.191406 -3.609375 11.613281 -4.082031 11.9375 -4.71875 L 12.203125 -4.71875 L 14.640625 -3.15625 C 14.160156 -2.132812 13.441406 -1.304688 12.484375 -0.671875 C 11.523438 -0.0351562 10.242188 0.28125 8.640625 0.28125 C 7.128906 0.28125 5.828125 -0.00390625 4.734375 -0.578125 C 3.640625 -1.148438 2.796875 -2.003906 2.203125 -3.140625 C 1.609375 -4.273438 1.3125 -5.65625 1.3125 -7.28125 C 1.3125 -8.9375 1.625 -10.332031 2.25 -11.46875 C 2.875 -12.601562 3.71875 -13.453125 4.78125 -14.015625 C 5.84375 -14.578125 7.039062 -14.859375 8.375 -14.859375 C 10.4375 -14.859375 12.015625 -14.3125 13.109375 -13.21875 C 14.210938 -12.125 14.765625 -10.519531 14.765625 -8.40625 C 14.765625 -7.632812 14.738281 -7.039062 14.6875 -6.625 Z M 11.265625 -8.828125 C 11.222656 -9.929688 10.960938 -10.738281 10.484375 -11.25 C 10.003906 -11.757812 9.300781 -12.015625 8.375 -12.015625 C 6.53125 -12.015625 5.441406 -10.953125 5.109375 -8.828125 Z M 11.265625 -8.828125 "/></g></g></g><g fill="#000000" fill-opacity="1"><g transform="translate(126.464318, 32.962299)"><g><path d="M 6.8125 0.28125 C 5.820312 0.28125 4.910156 0.164062 4.078125 -0.0625 C 3.253906 -0.300781 2.546875 -0.625 1.953125 -1.03125 C 1.367188 -1.445312 0.9375 -1.914062 0.65625 -2.4375 L 2.703125 -4.640625 L 2.96875 -4.640625 C 3.457031 -3.984375 4.03125 -3.492188 4.6875 -3.171875 C 5.351562 -2.847656 6.070312 -2.6875 6.84375 -2.6875 C 7.5625 -2.6875 8.097656 -2.8125 8.453125 -3.0625 C 8.816406 -3.320312 9 -3.6875 9 -4.15625 C 9 -4.53125 8.867188 -4.84375 8.609375 -5.09375 C 8.347656 -5.34375 7.925781 -5.539062 7.34375 -5.6875 L 5.421875 -6.140625 C 3.972656 -6.484375 2.914062 -7.007812 2.25 -7.71875 C 1.582031 -8.425781 1.25 -9.328125 1.25 -10.421875 C 1.25 -11.328125 1.476562 -12.113281 1.9375 -12.78125 C 2.40625 -13.457031 3.0625 -13.972656 3.90625 -14.328125 C 4.75 -14.679688 5.726562 -14.859375 6.84375 -14.859375 C 8.15625 -14.859375 9.242188 -14.664062 10.109375 -14.28125 C 10.972656 -13.90625 11.644531 -13.398438 12.125 -12.765625 L 10.171875 -10.65625 L 9.90625 -10.65625 C 9.5 -11.113281 9.039062 -11.445312 8.53125 -11.65625 C 8.03125 -11.863281 7.46875 -11.96875 6.84375 -11.96875 C 5.394531 -11.96875 4.671875 -11.519531 4.671875 -10.625 C 4.671875 -10.25 4.804688 -9.941406 5.078125 -9.703125 C 5.347656 -9.460938 5.820312 -9.269531 6.5 -9.125 L 8.296875 -8.71875 C 9.773438 -8.40625 10.851562 -7.894531 11.53125 -7.1875 C 12.21875 -6.488281 12.5625 -5.550781 12.5625 -4.375 C 12.5625 -3.445312 12.332031 -2.628906 11.875 -1.921875 C 11.414062 -1.222656 10.753906 -0.679688 9.890625 -0.296875 C 9.035156 0.0859375 8.007812 0.28125 6.8125 0.28125 Z M 6.8125 0.28125 "/></g></g></g><g fill="#000000" fill-opacity="1"><g transform="translate(139.899533, 32.962299)"><g><path d="M 2.09375 0 L 2.09375 -20.421875 L 5.765625 -20.421875 L 5.765625 -12.671875 L 6.03125 -12.625 C 6.519531 -13.332031 7.113281 -13.878906 7.8125 -14.265625 C 8.519531 -14.660156 9.375 -14.859375 10.375 -14.859375 C 13.59375 -14.859375 15.203125 -13.03125 15.203125 -9.375 L 15.203125 0 L 11.53125 0 L 11.53125 -8.921875 C 11.53125 -9.910156 11.332031 -10.628906 10.9375 -11.078125 C 10.539062 -11.535156 9.925781 -11.765625 9.09375 -11.765625 C 8.070312 -11.765625 7.257812 -11.421875 6.65625 -10.734375 C 6.0625 -10.054688 5.765625 -8.992188 5.765625 -7.546875 L 5.765625 0 Z M 2.09375 0 "/></g></g></g><g fill="#000000" fill-opacity="1"><g transform="translate(156.967667, 32.962299)"><g/></g></g><g fill="#000000" fill-opacity="1"><g transform="translate(163.348406, 32.962299)"><g><path d="M 2.515625 0 L 2.515625 -19.3125 L 6.328125 -19.3125 L 6.328125 -11.4375 L 6.75 -11.4375 L 13.203125 -19.3125 L 17.109375 -19.3125 L 17.109375 -18.984375 L 10 -10.203125 L 17.859375 -0.328125 L 17.859375 0 L 13.53125 0 L 6.75 -8.34375 L 6.328125 -8.34375 L 6.328125 0 Z M 2.515625 0 "/></g></g></g><g fill="#000000" fill-opacity="1"><g transform="translate(181.195972, 32.962299)"><g><path d="M 3.921875 -16.3125 C 3.265625 -16.3125 2.726562 -16.507812 2.3125 -16.90625 C 1.894531 -17.3125 1.6875 -17.832031 1.6875 -18.46875 C 1.6875 -19.09375 1.894531 -19.601562 2.3125 -20 C 2.726562 -20.40625 3.265625 -20.609375 3.921875 -20.609375 C 4.359375 -20.609375 4.75 -20.515625 5.09375 -20.328125 C 5.4375 -20.148438 5.703125 -19.898438 5.890625 -19.578125 C 6.085938 -19.253906 6.1875 -18.882812 6.1875 -18.46875 C 6.1875 -18.0625 6.085938 -17.691406 5.890625 -17.359375 C 5.703125 -17.035156 5.4375 -16.78125 5.09375 -16.59375 C 4.75 -16.40625 4.359375 -16.3125 3.921875 -16.3125 Z M 2.09375 0 L 2.09375 -14.578125 L 5.765625 -14.578125 L 5.765625 0 Z M 2.09375 0 "/></g></g></g><g fill="#000000" fill-opacity="1"><g transform="translate(189.043086, 32.962299)"><g><path d="M 2.09375 0 L 2.09375 -14.578125 L 5.65625 -14.578125 L 5.65625 -12.40625 L 5.9375 -12.359375 C 6.289062 -13.171875 6.75 -13.765625 7.3125 -14.140625 C 7.882812 -14.515625 8.582031 -14.703125 9.40625 -14.703125 C 10.238281 -14.703125 10.867188 -14.5625 11.296875 -14.28125 L 10.671875 -11.125 L 10.40625 -11.078125 C 10.164062 -11.171875 9.929688 -11.238281 9.703125 -11.28125 C 9.484375 -11.320312 9.21875 -11.34375 8.90625 -11.34375 C 7.882812 -11.34375 7.101562 -10.984375 6.5625 -10.265625 C 6.03125 -9.554688 5.765625 -8.40625 5.765625 -6.8125 L 5.765625 0 Z M 2.09375 0 "/></g></g></g><g fill="#000000" fill-opacity="1"><g transform="translate(200.470286, 32.962299)"><g><path d="M 5.6875 0.28125 C 4.75 0.28125 3.9375 0.109375 3.25 -0.234375 C 2.5625 -0.578125 2.03125 -1.082031 1.65625 -1.75 C 1.289062 -2.414062 1.109375 -3.21875 1.109375 -4.15625 C 1.109375 -5.007812 1.289062 -5.726562 1.65625 -6.3125 C 2.03125 -6.90625 2.601562 -7.390625 3.375 -7.765625 C 4.15625 -8.140625 5.171875 -8.425781 6.421875 -8.625 C 7.296875 -8.769531 7.957031 -8.925781 8.40625 -9.09375 C 8.863281 -9.257812 9.171875 -9.445312 9.328125 -9.65625 C 9.484375 -9.875 9.5625 -10.144531 9.5625 -10.46875 C 9.5625 -10.9375 9.398438 -11.289062 9.078125 -11.53125 C 8.753906 -11.78125 8.210938 -11.90625 7.453125 -11.90625 C 6.640625 -11.90625 5.867188 -11.722656 5.140625 -11.359375 C 4.410156 -11.003906 3.773438 -10.53125 3.234375 -9.9375 L 2.96875 -9.9375 L 1.4375 -12.25 C 2.175781 -13.070312 3.078125 -13.710938 4.140625 -14.171875 C 5.210938 -14.628906 6.378906 -14.859375 7.640625 -14.859375 C 9.566406 -14.859375 10.960938 -14.445312 11.828125 -13.625 C 12.691406 -12.800781 13.125 -11.640625 13.125 -10.140625 L 13.125 -3.8125 C 13.125 -3.15625 13.410156 -2.828125 13.984375 -2.828125 C 14.203125 -2.828125 14.414062 -2.867188 14.625 -2.953125 L 14.8125 -2.890625 L 15.078125 -0.34375 C 14.867188 -0.207031 14.582031 -0.0976562 14.21875 -0.015625 C 13.863281 0.0664062 13.472656 0.109375 13.046875 0.109375 C 12.171875 0.109375 11.488281 -0.0546875 11 -0.390625 C 10.507812 -0.734375 10.160156 -1.257812 9.953125 -1.96875 L 9.671875 -2 C 8.960938 -0.476562 7.632812 0.28125 5.6875 0.28125 Z M 6.84375 -2.453125 C 7.6875 -2.453125 8.363281 -2.734375 8.875 -3.296875 C 9.382812 -3.867188 9.640625 -4.664062 9.640625 -5.6875 L 9.640625 -7.15625 L 9.375 -7.21875 C 9.15625 -7.039062 8.867188 -6.890625 8.515625 -6.765625 C 8.160156 -6.648438 7.648438 -6.535156 6.984375 -6.421875 C 6.179688 -6.285156 5.609375 -6.054688 5.265625 -5.734375 C 4.921875 -5.421875 4.75 -4.96875 4.75 -4.375 C 4.75 -3.75 4.929688 -3.269531 5.296875 -2.9375 C 5.671875 -2.613281 6.1875 -2.453125 6.84375 -2.453125 Z M 6.84375 -2.453125 "/></g></g></g><g fill="#000000" fill-opacity="1"><g transform="translate(215.834254, 32.962299)"><g><path d="M 2.09375 0 L 2.09375 -14.578125 L 5.609375 -14.578125 L 5.609375 -12.4375 L 5.890625 -12.375 C 6.796875 -14.03125 8.269531 -14.859375 10.3125 -14.859375 C 11.988281 -14.859375 13.222656 -14.398438 14.015625 -13.484375 C 14.804688 -12.566406 15.203125 -11.226562 15.203125 -9.46875 L 15.203125 0 L 11.53125 0 L 11.53125 -9.03125 C 11.53125 -10 11.335938 -10.695312 10.953125 -11.125 C 10.566406 -11.550781 9.945312 -11.765625 9.09375 -11.765625 C 8.039062 -11.765625 7.222656 -11.421875 6.640625 -10.734375 C 6.054688 -10.054688 5.765625 -8.992188 5.765625 -7.546875 L 5.765625 0 Z M 2.09375 0 "/></g></g></g><g fill="#000000" fill-opacity="1"><g transform="translate(232.902387, 32.962299)"><g><path d="M 5.6875 0.28125 C 4.75 0.28125 3.9375 0.109375 3.25 -0.234375 C 2.5625 -0.578125 2.03125 -1.082031 1.65625 -1.75 C 1.289062 -2.414062 1.109375 -3.21875 1.109375 -4.15625 C 1.109375 -5.007812 1.289062 -5.726562 1.65625 -6.3125 C 2.03125 -6.90625 2.601562 -7.390625 3.375 -7.765625 C 4.15625 -8.140625 5.171875 -8.425781 6.421875 -8.625 C 7.296875 -8.769531 7.957031 -8.925781 8.40625 -9.09375 C 8.863281 -9.257812 9.171875 -9.445312 9.328125 -9.65625 C 9.484375 -9.875 9.5625 -10.144531 9.5625 -10.46875 C 9.5625 -10.9375 9.398438 -11.289062 9.078125 -11.53125 C 8.753906 -11.78125 8.210938 -11.90625 7.453125 -11.90625 C 6.640625 -11.90625 5.867188 -11.722656 5.140625 -11.359375 C 4.410156 -11.003906 3.773438 -10.53125 3.234375 -9.9375 L 2.96875 -9.9375 L 1.4375 -12.25 C 2.175781 -13.070312 3.078125 -13.710938 4.140625 -14.171875 C 5.210938 -14.628906 6.378906 -14.859375 7.640625 -14.859375 C 9.566406 -14.859375 10.960938 -14.445312 11.828125 -13.625 C 12.691406 -12.800781 13.125 -11.640625 13.125 -10.140625 L 13.125 -3.8125 C 13.125 -3.15625 13.410156 -2.828125 13.984375 -2.828125 C 14.203125 -2.828125 14.414062 -2.867188 14.625 -2.953125 L 14.8125 -2.890625 L 15.078125 -0.34375 C 14.867188 -0.207031 14.582031 -0.0976562 14.21875 -0.015625 C 13.863281 0.0664062 13.472656 0.109375 13.046875 0.109375 C 12.171875 0.109375 11.488281 -0.0546875 11 -0.390625 C 10.507812 -0.734375 10.160156 -1.257812 9.953125 -1.96875 L 9.671875 -2 C 8.960938 -0.476562 7.632812 0.28125 5.6875 0.28125 Z M 6.84375 -2.453125 C 7.6875 -2.453125 8.363281 -2.734375 8.875 -3.296875 C 9.382812 -3.867188 9.640625 -4.664062 9.640625 -5.6875 L 9.640625 -7.15625 L 9.375 -7.21875 C 9.15625 -7.039062 8.867188 -6.890625 8.515625 -6.765625 C 8.160156 -6.648438 7.648438 -6.535156 6.984375 -6.421875 C 6.179688 -6.285156 5.609375 -6.054688 5.265625 -5.734375 C 4.921875 -5.421875 4.75 -4.96875 4.75 -4.375 C 4.75 -3.75 4.929688 -3.269531 5.296875 -2.9375 C 5.671875 -2.613281 6.1875 -2.453125 6.84375 -2.453125 Z M 6.84375 -2.453125 "/></g></g></g><g fill="#000000" fill-opacity="1"><g transform="translate(248.269824, 32.962299)"><g/></g></g><g fill="#000000" fill-opacity="1"><g transform="translate(65.748254, 56.876583)"><g><path d="M 8.5625 0.28125 C 7.21875 0.28125 6.023438 0.113281 4.984375 -0.21875 C 3.941406 -0.550781 3.070312 -0.984375 2.375 -1.515625 C 1.675781 -2.054688 1.144531 -2.648438 0.78125 -3.296875 L 2.875 -5.859375 L 3.21875 -5.859375 C 3.789062 -4.992188 4.523438 -4.304688 5.421875 -3.796875 C 6.316406 -3.285156 7.363281 -3.03125 8.5625 -3.03125 C 9.582031 -3.03125 10.351562 -3.242188 10.875 -3.671875 C 11.394531 -4.109375 11.65625 -4.703125 11.65625 -5.453125 C 11.65625 -5.910156 11.570312 -6.289062 11.40625 -6.59375 C 11.238281 -6.90625 10.957031 -7.171875 10.5625 -7.390625 C 10.175781 -7.617188 9.65625 -7.8125 9 -7.96875 L 6.515625 -8.53125 C 4.773438 -8.925781 3.476562 -9.582031 2.625 -10.5 C 1.78125 -11.425781 1.359375 -12.625 1.359375 -14.09375 C 1.359375 -15.1875 1.628906 -16.144531 2.171875 -16.96875 C 2.722656 -17.800781 3.519531 -18.445312 4.5625 -18.90625 C 5.601562 -19.363281 6.851562 -19.59375 8.3125 -19.59375 C 9.800781 -19.59375 11.078125 -19.394531 12.140625 -19 C 13.203125 -18.613281 14.097656 -18.015625 14.828125 -17.203125 L 12.9375 -14.609375 L 12.609375 -14.609375 C 12.054688 -15.179688 11.425781 -15.609375 10.71875 -15.890625 C 10.019531 -16.179688 9.21875 -16.328125 8.3125 -16.328125 C 7.257812 -16.328125 6.457031 -16.140625 5.90625 -15.765625 C 5.363281 -15.398438 5.09375 -14.894531 5.09375 -14.25 C 5.09375 -13.632812 5.285156 -13.144531 5.671875 -12.78125 C 6.054688 -12.425781 6.722656 -12.148438 7.671875 -11.953125 L 10.203125 -11.421875 C 12.078125 -11.023438 13.4375 -10.351562 14.28125 -9.40625 C 15.125 -8.457031 15.546875 -7.21875 15.546875 -5.6875 C 15.546875 -4.488281 15.285156 -3.441406 14.765625 -2.546875 C 14.253906 -1.648438 13.472656 -0.953125 12.421875 -0.453125 C 11.367188 0.0351562 10.082031 0.28125 8.5625 0.28125 Z M 8.5625 0.28125 "/></g></g></g><g fill="#000000" fill-opacity="1"><g transform="translate(82.340804, 56.876583)"><g><path d="M 10.0625 -3.46875 L 11 -0.765625 C 10.601562 -0.441406 10.101562 -0.1875 9.5 0 C 8.90625 0.1875 8.234375 0.28125 7.484375 0.28125 C 5.898438 0.28125 4.695312 -0.144531 3.875 -1 C 3.0625 -1.863281 2.65625 -3.113281 2.65625 -4.75 L 2.65625 -11.6875 L 0.4375 -11.6875 L 0.4375 -14.59375 L 2.65625 -14.59375 L 2.65625 -17.421875 L 6.3125 -18.03125 L 6.3125 -14.59375 L 10.453125 -14.59375 L 10.453125 -11.6875 L 6.3125 -11.6875 L 6.3125 -5.015625 C 6.3125 -4.296875 6.460938 -3.769531 6.765625 -3.4375 C 7.066406 -3.113281 7.503906 -2.953125 8.078125 -2.953125 C 8.722656 -2.953125 9.289062 -3.125 9.78125 -3.46875 Z M 10.0625 -3.46875 "/></g></g></g><g fill="#000000" fill-opacity="1"><g transform="translate(93.662319, 56.876583)"><g><path d="M 8.46875 0.28125 C 7.039062 0.28125 5.785156 -0.0078125 4.703125 -0.59375 C 3.628906 -1.1875 2.796875 -2.046875 2.203125 -3.171875 C 1.609375 -4.304688 1.3125 -5.675781 1.3125 -7.28125 C 1.3125 -8.882812 1.609375 -10.253906 2.203125 -11.390625 C 2.796875 -12.523438 3.628906 -13.382812 4.703125 -13.96875 C 5.785156 -14.5625 7.039062 -14.859375 8.46875 -14.859375 C 9.894531 -14.859375 11.144531 -14.5625 12.21875 -13.96875 C 13.300781 -13.382812 14.140625 -12.523438 14.734375 -11.390625 C 15.335938 -10.253906 15.640625 -8.882812 15.640625 -7.28125 C 15.640625 -5.675781 15.335938 -4.304688 14.734375 -3.171875 C 14.140625 -2.046875 13.300781 -1.1875 12.21875 -0.59375 C 11.144531 -0.0078125 9.894531 0.28125 8.46875 0.28125 Z M 8.46875 -2.828125 C 10.726562 -2.828125 11.859375 -4.3125 11.859375 -7.28125 C 11.859375 -8.820312 11.566406 -9.953125 10.984375 -10.671875 C 10.410156 -11.390625 9.570312 -11.75 8.46875 -11.75 C 6.207031 -11.75 5.078125 -10.257812 5.078125 -7.28125 C 5.078125 -4.3125 6.207031 -2.828125 8.46875 -2.828125 Z M 8.46875 -2.828125 "/></g></g></g><g fill="#000000" fill-opacity="1"><g transform="translate(110.598346, 56.876583)"><g><path d="M 2.09375 0 L 2.09375 -14.578125 L 5.65625 -14.578125 L 5.65625 -12.40625 L 5.9375 -12.359375 C 6.289062 -13.171875 6.75 -13.765625 7.3125 -14.140625 C 7.882812 -14.515625 8.582031 -14.703125 9.40625 -14.703125 C 10.238281 -14.703125 10.867188 -14.5625 11.296875 -14.28125 L 10.671875 -11.125 L 10.40625 -11.078125 C 10.164062 -11.171875 9.929688 -11.238281 9.703125 -11.28125 C 9.484375 -11.320312 9.21875 -11.34375 8.90625 -11.34375 C 7.882812 -11.34375 7.101562 -10.984375 6.5625 -10.265625 C 6.03125 -9.554688 5.765625 -8.40625 5.765625 -6.8125 L 5.765625 0 Z M 2.09375 0 "/></g></g></g><g fill="#000000" fill-opacity="1"><g transform="translate(122.025546, 56.876583)"><g><path d="M 14.40625 -6.46875 L 5.03125 -6.46875 C 5.132812 -5.195312 5.492188 -4.269531 6.109375 -3.6875 C 6.734375 -3.113281 7.578125 -2.828125 8.640625 -2.828125 C 9.472656 -2.828125 10.148438 -2.984375 10.671875 -3.296875 C 11.191406 -3.609375 11.613281 -4.082031 11.9375 -4.71875 L 12.203125 -4.71875 L 14.640625 -3.15625 C 14.160156 -2.132812 13.441406 -1.304688 12.484375 -0.671875 C 11.523438 -0.0351562 10.242188 0.28125 8.640625 0.28125 C 7.128906 0.28125 5.828125 -0.00390625 4.734375 -0.578125 C 3.640625 -1.148438 2.796875 -2.003906 2.203125 -3.140625 C 1.609375 -4.273438 1.3125 -5.65625 1.3125 -7.28125 C 1.3125 -8.9375 1.625 -10.332031 2.25 -11.46875 C 2.875 -12.601562 3.71875 -13.453125 4.78125 -14.015625 C 5.84375 -14.578125 7.039062 -14.859375 8.375 -14.859375 C 10.4375 -14.859375 12.015625 -14.3125 13.109375 -13.21875 C 14.210938 -12.125 14.765625 -10.519531 14.765625 -8.40625 C 14.765625 -7.632812 14.738281 -7.039062 14.6875 -6.625 Z M 11.265625 -8.828125 C 11.222656 -9.929688 10.960938 -10.738281 10.484375 -11.25 C 10.003906 -11.757812 9.300781 -12.015625 8.375 -12.015625 C 6.53125 -12.015625 5.441406 -10.953125 5.109375 -8.828125 Z M 11.265625 -8.828125 "/></g></g></g></svg>